<?xml version="1.0" encoding="iso-8859-1"?>
<!-- Generator: Adobe Illustrator 19.0.0, SVG Export Plug-In . SVG Version: 6.00 Build 0)  -->
<svg version="1.1" id="Capa_1" xmlns="http://www.w3.org/2000/svg" xmlns:xlink="http://www.w3.org/1999/xlink" x="0px" y="0px"
	 viewBox="0 0 511.998 511.998" style="enable-background:new 0 0 511.998 511.998;" xml:space="preserve">
<g>
	<g>
		<path d="M429.065,274.93c-3.9-3.91-10.24-3.91-14.14,0c-3.91,3.9-3.91,10.24,0,14.14c3.9,3.91,10.24,3.91,14.14,0
			C432.975,285.17,432.975,278.83,429.065,274.93z"/>
	</g>
</g>
<g>
	<g>
		<path d="M409.065,254.93c-3.9-3.91-10.24-3.91-14.14,0c-3.91,3.9-3.91,10.24,0,14.14c3.9,3.91,10.24,3.91,14.14,0
			C412.975,265.17,412.975,258.83,409.065,254.93z"/>
	</g>
</g>
<g>
	<g>
		<path d="M409.065,294.93c-3.9-3.91-10.24-3.91-14.14,0c-3.91,3.9-3.91,10.24,0,14.14c3.9,3.91,10.24,3.91,14.14,0
			C412.975,305.17,412.975,298.83,409.065,294.93z"/>
	</g>
</g>
<g>
	<g>
		<path d="M389.065,274.93c-3.9-3.91-10.24-3.91-14.14,0c-3.91,3.9-3.91,10.24,0,14.14c3.9,3.91,10.24,3.91,14.14,0
			C392.975,285.17,392.975,278.83,389.065,274.93z"/>
	</g>
</g>
<g>
	<g>
		<path d="M303.065,254.93c-3.9-3.91-10.24-3.91-14.14,0c-3.91,3.9-3.91,10.24,0,14.14c3.9,3.91,10.24,3.91,14.14,0
			C306.975,265.17,306.975,258.83,303.065,254.93z"/>
	</g>
</g>
<g>
	<g>
		<path d="M129.995,272h-10v-10c0-5.522-4.477-10-10-10s-10,4.478-10,10v10h-10c-5.523,0-10,4.478-10,10c0,5.522,4.477,10,10,10h10
			v10c0,5.522,4.477,10,10,10s10-4.478,10-10v-10h10c5.523,0,10-4.478,10-10C139.995,276.478,135.518,272,129.995,272z"/>
	</g>
</g>
<g>
	<g>
		<path d="M295.995,292h-20c-5.522,0-10,4.478-10,10c0,5.522,4.478,10,10,10h20c5.522,0,10-4.478,10-10
			C305.995,296.478,301.518,292,295.995,292z"/>
	</g>
</g>
<g>
	<g>
		<path d="M235.995,292h-20c-5.523,0-10,4.478-10,10c0,5.522,4.477,10,10,10h20c5.522,0,10-4.478,10-10
			C245.995,296.478,241.518,292,235.995,292z"/>
	</g>
</g>
<g>
	<g>
		<path d="M255.995,252h-40c-5.523,0-10,4.478-10,10c0,5.522,4.477,10,10,10h40c5.522,0,10-4.478,10-10
			C265.995,256.478,261.518,252,255.995,252z"/>
	</g>
</g>
<g>
	<g>
		<path d="M401.995,212c-38.598,0-70,31.402-70,70c0,38.598,31.402,70,70,70c38.598,0,70-31.402,70-70
			C471.995,243.402,440.593,212,401.995,212z M401.995,332c-27.57,0-50-22.43-50-50s22.43-50,50-50s50,22.43,50,50
			S429.565,332,401.995,332z"/>
	</g>
</g>
<g>
	<g>
		<path d="M507.861,251.685c-9.504-34.793-36.835-63.227-71.326-74.205c-34.059-10.833-68.365-5.66-97.087,14.52h-53.453v-10
			c0-13.334-8.615-24.28-20-28.297V100c0-11.028,8.972-20,20-20h40c22.098,0,40-17.898,40-40c0-22.056-17.944-40-40-40h-170
			c-5.523,0-10,4.478-10,10s4.477,10,10,10h170c11.028,0,20,8.972,20,20c0,11.046-8.954,20-20,20h-40c-22.056,0-40,17.944-40,40
			v53.72c-11.639,4.128-20,15.243-20,28.28v10h-53.441c-28.731-20.184-63.042-25.354-97.103-14.519
			c-34.483,10.979-61.809,39.404-71.313,74.183c-8.487,31.067-3.814,62.702,13.159,89.08c14.849,23.059,22.698,51.108,22.698,81.116
			v27.279c0,32.047,23.655,59.522,53.853,62.551c35.462,3.559,66.147-24.153,66.147-59.69c0-13.857,1.755-15.473,5.682-36.064
			c1.035-5.417,3.617-10.389,7.352-14.39c7.255,6.662,16.769,10.454,26.966,10.454c14.441,0,27.591-7.807,34.64-20h42.721
			c7.052,12.196,20.2,20,34.639,20c10.268,0,19.828-3.834,27.087-10.556c3.753,3.981,6.346,8.933,7.383,14.33
			c3.797,19.786,5.53,20.363,5.53,33.376c0,32.052,23.651,59.522,53.843,62.54c35.691,3.569,66.157-24.378,66.157-59.69v-30.71
			c0-29.915,7.731-57.589,22.357-80.028C511.607,314.797,516.405,282.986,507.861,251.685z M245.995,182c0-5.514,4.486-10,10-10
			c5.52,0,10,4.479,10,10v10h-20V182z M199.995,392c-11.363,0-20-9.271-20-20c0-11.028,8.972-20,20-20s20,8.972,20,20
			C219.995,383.147,210.926,392,199.995,392z M329.069,382.397c-3.653,6.013-10.036,9.603-17.074,9.603
			c-8.464,0-16.044-5.357-18.861-13.332c-0.001-0.004-0.003-0.008-0.004-0.012c-0.753-2.122-1.135-4.361-1.135-6.656
			c0-11.028,8.972-20,20-20s20,8.972,20,20C331.995,375.676,330.989,379.261,329.069,382.397z M477.598,330.34
			c-16.749,25.698-25.603,57.148-25.603,90.95V452c0,23.055-19.765,42.223-44.166,39.79c-20.094-2.009-35.834-20.738-35.834-42.64
			c0-15.662-2.225-18.064-5.89-37.146c-2.075-10.808-7.792-20.538-16.066-27.719c1.276-3.947,1.956-8.085,1.956-12.285
			c0-22.056-17.944-40-40-40c-22.056,0-40,17.944-40,40h-32c0-22.056-17.944-40-40-40c-22.056,0-40,17.944-40,40
			c0,4.256,0.696,8.445,2.002,12.434c-8.22,7.202-13.9,16.942-15.965,27.751c-3.788,19.856-6.037,23.502-6.037,39.814
			c0,23.095-19.833,42.244-44.152,39.79c-20.102-2.016-35.848-20.75-35.848-42.65V421.86c0-33.856-8.95-65.65-25.881-91.941
			c-13.861-21.542-17.655-47.461-10.683-72.983c7.736-28.31,29.994-51.452,58.085-60.396c29.075-9.247,58.353-4.298,82.442,13.943
			c2.649,2.004,6.091,2.545,9.189,1.518h165.41c3.137,1.119,6.682,0.611,9.403-1.454c24.099-18.29,53.402-23.266,82.511-14.007
			c28.098,8.942,50.359,32.093,58.096,60.414C495.586,282.664,491.69,308.726,477.598,330.34z"/>
	</g>
</g>
<g>
	<g>
		<path d="M109.995,212c-38.598,0-70,31.402-70,70c0,38.598,31.402,70,70,70c38.598,0,70-31.402,70-70
			C179.995,243.402,148.593,212,109.995,212z M109.995,332c-27.57,0-50-22.43-50-50s22.43-50,50-50s50,22.43,50,50
			S137.566,332,109.995,332z"/>
	</g>
</g>
<g>
</g>
<g>
</g>
<g>
</g>
<g>
</g>
<g>
</g>
<g>
</g>
<g>
</g>
<g>
</g>
<g>
</g>
<g>
</g>
<g>
</g>
<g>
</g>
<g>
</g>
<g>
</g>
<g>
</g>
</svg>
