<?xml version="1.0" encoding="iso-8859-1"?>
<!-- Generator: Adobe Illustrator 19.0.0, SVG Export Plug-In . SVG Version: 6.00 Build 0)  -->
<svg version="1.1" id="Capa_1" xmlns="http://www.w3.org/2000/svg" xmlns:xlink="http://www.w3.org/1999/xlink" x="0px" y="0px"
	 viewBox="0 0 512 512" style="enable-background:new 0 0 512 512;" xml:space="preserve">
<g>
	<g>
		<path d="M176,40c-5.52,0-10,4.48-10,10s4.48,10,10,10s10-4.48,10-10S181.52,40,176,40z"/>
	</g>
</g>
<g>
	<g>
		<path d="M176,180c-5.52,0-10,4.48-10,10s4.48,10,10,10s10-4.48,10-10S181.52,180,176,180z"/>
	</g>
</g>
<g>
	<g>
		<path d="M176,320c-5.52,0-10,4.48-10,10c0,5.52,4.48,10,10,10s10-4.48,10-10C186,324.48,181.52,320,176,320z"/>
	</g>
</g>
<g>
	<g>
		<path d="M136,40c-5.52,0-10,4.48-10,10s4.48,10,10,10s10-4.48,10-10S141.52,40,136,40z"/>
	</g>
</g>
<g>
	<g>
		<path d="M136,180c-5.52,0-10,4.48-10,10s4.48,10,10,10s10-4.48,10-10S141.52,180,136,180z"/>
	</g>
</g>
<g>
	<g>
		<path d="M136,320c-5.52,0-10,4.48-10,10c0,5.52,4.48,10,10,10s10-4.48,10-10C146,324.48,141.52,320,136,320z"/>
	</g>
</g>
<g>
	<g>
		<path d="M96,40c-5.52,0-10,4.48-10,10s4.48,10,10,10s10-4.48,10-10S101.52,40,96,40z"/>
	</g>
</g>
<g>
	<g>
		<path d="M96,180c-5.52,0-10,4.48-10,10s4.48,10,10,10s10-4.48,10-10S101.52,180,96,180z"/>
	</g>
</g>
<g>
	<g>
		<path d="M96,320c-5.52,0-10,4.48-10,10c0,5.52,4.48,10,10,10s10-4.48,10-10C106,324.48,101.52,320,96,320z"/>
	</g>
</g>
<g>
	<g>
		<path d="M296,320h-20c-5.522,0-10,4.478-10,10c0,5.522,4.478,10,10,10h20c5.522,0,10-4.478,10-10C306,324.478,301.522,320,296,320
			z"/>
	</g>
</g>
<g>
	<g>
		<path d="M356,320h-20c-5.522,0-10,4.478-10,10c0,5.522,4.478,10,10,10h20c5.522,0,10-4.478,10-10C366,324.478,361.522,320,356,320
			z"/>
	</g>
</g>
<g>
	<g>
		<path d="M416,320h-20c-5.522,0-10,4.478-10,10c0,5.522,4.478,10,10,10h20c5.522,0,10-4.478,10-10C426,324.478,421.522,320,416,320
			z"/>
	</g>
</g>
<g>
	<g>
		<path d="M296,180h-20c-5.522,0-10,4.478-10,10c0,5.522,4.478,10,10,10h20c5.522,0,10-4.478,10-10C306,184.478,301.522,180,296,180
			z"/>
	</g>
</g>
<g>
	<g>
		<path d="M356,180h-20c-5.522,0-10,4.478-10,10c0,5.522,4.478,10,10,10h20c5.522,0,10-4.478,10-10C366,184.478,361.522,180,356,180
			z"/>
	</g>
</g>
<g>
	<g>
		<path d="M416,180h-20c-5.522,0-10,4.478-10,10c0,5.522,4.478,10,10,10h20c5.522,0,10-4.478,10-10C426,184.478,421.522,180,416,180
			z"/>
	</g>
</g>
<g>
	<g>
		<path d="M296,40h-20c-5.522,0-10,4.478-10,10s4.478,10,10,10h20c5.522,0,10-4.478,10-10S301.522,40,296,40z"/>
	</g>
</g>
<g>
	<g>
		<path d="M356,40h-20c-5.522,0-10,4.478-10,10s4.478,10,10,10h20c5.522,0,10-4.478,10-10S361.522,40,356,40z"/>
	</g>
</g>
<g>
	<g>
		<path d="M416,40h-20c-5.522,0-10,4.478-10,10s4.478,10,10,10h20c5.522,0,10-4.478,10-10S421.522,40,416,40z"/>
	</g>
</g>
<g>
	<g>
		<path d="M502,452c-15.049,0-207.708,0-216,0v-52h170c5.522,0,10-4.478,10-10V290c0-5.522-4.478-10-10-10h-50v-20h50
			c5.522,0,10-4.478,10-10V150c0-5.522-4.478-10-10-10h-50v-20h50c5.522,0,10-4.478,10-10V10c0-5.522-4.478-10-10-10H56
			c-5.522,0-10,4.478-10,10v100c0,5.522,4.478,10,10,10h30v20H56c-5.522,0-10,4.478-10,10v100c0,5.522,4.478,10,10,10h30v20H56
			c-5.522,0-10,4.478-10,10v100c0,5.522,4.478,10,10,10h170v52c-8.297,0-200.956,0-216,0c-5.522,0-10,4.478-10,10v40
			c0,5.522,4.478,10,10,10h492c5.522,0,10-4.478,10-10v-40C512,456.478,507.522,452,502,452z M66,100V20h380v80H66z M386,120v20H106
			v-20H386z M66,240v-80h380v80H66z M386,260v20H106v-20H386z M66,380v-80h380v80H66z M266,400v52h-20v-52H266z M186,492H20v-20h166
			V492z M306,492H206v-20h100V492z M492,492H326v-20h166V492z"/>
	</g>
</g>
<g>
</g>
<g>
</g>
<g>
</g>
<g>
</g>
<g>
</g>
<g>
</g>
<g>
</g>
<g>
</g>
<g>
</g>
<g>
</g>
<g>
</g>
<g>
</g>
<g>
</g>
<g>
</g>
<g>
</g>
</svg>
